<?xml version="1.0" encoding="UTF-8"?>
<svg id="Layer_1" xmlns="http://www.w3.org/2000/svg" version="1.1" viewBox="0 0 702.6 508.3">
  <!-- Generator: Adobe Illustrator 29.5.1, SVG Export Plug-In . SVG Version: 2.1.0 Build 141)  -->
  <defs>
    <style>
      .st0 {
        stroke-width: 1.8px;
      }

      .st0, .st1, .st2 {
        fill: none;
        stroke: #1a1a1a;
        stroke-linecap: round;
        stroke-linejoin: round;
      }

      .st3 {
        font-size: 64px;
      }

      .st4 {
        font-size: 95px;
      }

      .st1 {
        stroke-width: 2.2px;
      }

      .st5 {
        fill: #06f;
      }

      .st6 {
        fill: #ffeb57;
      }

      .st2 {
        stroke-width: 3.2px;
      }

      .st7 {
        font-family: Krub-Regular, Krub;
      }

      .st8 {
        fill: #1a1a1a;
      }
    </style>
  </defs>
  <g>
    <circle class="st6" cx="213.1" cy="287.4" r="101.4"/>
    <path class="st5" d="M205,289.5c-13.6,13.8-53.6,38.6-57.2,6.5,6.3-65.5,78.5-93.4,106.8-147.8,5.5,51.2-8.2,107.5-49.6,141.3Z"/>
    <path class="st2" d="M360.1,53.8c-13.8.4-27.9,5.4-40.8,10-29.2,10.8-55.4,28-82,43.9-44.6,28.7-84.8,64.3-121.4,102.5-17.6,18-32.4,38.8-42.5,61.9-3.5,7.7-7,15.4-11.8,22.4-5.3,7.9-12,14.9-19.3,21.2-7.5,6.3-10.8,11.5-.2,17.6,10.6,6.1,21.2,12.1,31.2,19.2,12.3,8.5,24,17.9,36.1,26.7,47.9,35.2,104.3,59.9,163.5,68.6,18.4,2.6,46.7,6.5,65.3,6.8"/>
    <path class="st2" d="M360.1,53.8c-7.9,5.9-16,13-21.6,18.3-20.1,18.4-35.7,41.4-44.3,67.4-5.6,15.4-7.9,31.5-9.2,47.7-.7,8-1.4,16-1.5,24-.3,27.5,6.5,54.6,10.2,81.8,1.6,16,11.8,20.5,23.7,28.8,22.4,15.7,53.1,32.3,81.3,32.4"/>
    <path class="st1" d="M209.9,361.2c-76.5-32.2-52.4-78.4-83.5-97.2-9.8-5.5-24-5-31.6,3.8-4.6,5.1-7.1,12.9-6.1,20,.8,5.4,3.7,10.1,8.9,10.9,7.4.9,13.7-7.4,13.3-14.4-.1-3.2-1.8-6.4-5-7.3-5.1-1.3-9.6,4.1-9.6,9-.1,5.7,3.8,8.5,8.5,10.7"/>
    <path class="st2" d="M394,207.1c-31.7,6.2-58.2,21.3-78.2,47.3-7.7,9.7-15.8,20.7-22.9,30.7"/>
    <path class="st0" d="M372,234.8c-6.8,2.5-35.1,22.7-47.4,28.7-11.6,5.6-17.7,6.3-21.6,7.7"/>
    <path class="st0" d="M356.2,272.1c-18.3,10.5-41,17.3-63.3,16.8"/>
    <path class="st2" d="M292.9,285.1c-42.5,66.6-34.3,140.7,45.3,169.4"/>
    <path class="st0" d="M295.6,301.9c9.7.8,21,5.6,31.4,6.5,10.3.9,19.9.2,29.5-1.3"/>
    <path class="st2" d="M295.6,301.9c-3.8,19.8-6.9,44.2-30.8,48"/>
    <path class="st2" d="M394,207.1c-4.2,5.1-9.7,11.7-12.4,14.9-25.3,29.6-40.1,77.1-12.1,109.8,8,9.4,17.4,18.5,29.2,22.5"/>
    <path class="st8" d="M251.4,206.8c3.6-.4-7.6,7.1-9.7,8.7-16.2,11.5-37.1,26.3-54,38.3-4.2,2.9-7.6,5.5-9.5,6.4-.5.2-.9.4-1.3.5-.1,0-.2,0-.2-.2,1.5-2.8,6.3-6.5,9.2-9,18.2-14.2,37.5-27.3,56.7-40.1,2.6-1.6,6.5-3.9,8.7-4.5h0Z"/>
    <path class="st8" d="M237.2,248.6c-3.2,2.8-8.6,5.1-12.8,7-16.6,6.8-32.7,15.3-49.3,22-5.3,2.1-13.4,3.2-2.5-2.1,4.1-1.8,9.8-4.3,16.2-7.1,11.5-5,27-11.8,37.7-16.4,1.7-.6,11.7-5.5,10.7-3.4h0Z"/>
    <path class="st8" d="M208.6,286c-3,2.6-16.8,3.6-22.7,4.6-3.4.4-24.5,4.4-24.5,1.5,2.7-2.9,44.4-8.3,47.2-6.2h0Z"/>
  </g>
  <text class="st7" transform="translate(420.8 260.4)"><tspan class="st4"><tspan x="0" y="0">Beste</tspan></tspan><tspan class="st3"><tspan x="0" y="76.8">BOZDAĞ</tspan></tspan></text>
</svg>